<?xml version="1.0" encoding="utf-8"?>
<!-- Generator: Adobe Illustrator 25.2.3, SVG Export Plug-In . SVG Version: 6.00 Build 0)  -->
<svg version="1.1" baseProfile="tiny" id="Layer_1" xmlns="http://www.w3.org/2000/svg" xmlns:xlink="http://www.w3.org/1999/xlink" x="0px" y="0px" viewBox="0 0 256.08 72" overflow="visible" xml:space="preserve">
  <g>
    <rect fill="#003057" width="248.06" height="57.96" />
    <g>
      <path fill="#74C3D5" d="M41.8,47.85c-5.08-6.09-9.63-12.37-13.7-18.63l0,0c-6.18,1.45-12.73,0.46-20.33-2.81h0v21.43H41.8z" />
      <path fill="#00416B" d="M28.1,29.22c6.51-1.53,12.61-5.76,19.07-12.88v-7.9h-31v0C19.58,15.17,23.53,22.19,28.1,29.22z" />
      <path fill="#007CBA" d="M28.1,29.23L28.1,29.23c-6.18,1.45-12.73,0.46-20.33-2.81h0h0V8.45h8.4v0
			C19.57,15.17,23.53,22.19,28.1,29.23L28.1,29.23z" />
      <path fill="#7BADD3" d="M41.8,47.85c-5.08-6.09-9.63-12.37-13.7-18.63l0,0c6.51-1.53,12.61-5.76,19.07-12.88v31.5H41.8z" />
    </g>
    <g id="Lake_Shore_copy_32_">
      <path fill-rule="evenodd" fill="#FFFFFF" d="M65.34,9.02H61.8l-5.07,22.51h18.01l0.67-2.9H60.93L65.34,9.02z M93.33,28.02l2-8.89
			c0.83-3.84-3.43-4.7-7-4.7c-5.23,0-8.6,1.61-9.93,5.74h3.13c0.67-2.56,3.27-3.28,6.14-3.28c2.7,0,4.93,0.44,4.4,2.71
			c-0.33,1.48-1.57,1.8-3.47,1.98l-3.9,0.38c-5.7,0.57-7.97,2.11-8.64,5.14c-0.5,2.14,0.17,4.98,5.97,4.98
			c2.83,0,6.33-0.98,8.03-2.68c-0.17,1.86,0.84,2.3,2.5,2.3c0.8,0,1.8-0.07,2.63-0.19l0.5-2.21c-0.37,0.06-0.84,0.13-1.2,0.13
			C93.46,29.44,93.09,29,93.33,28.02z M90.86,24.99c-0.6,2.74-4.2,4.64-7.97,4.64c-2.43,0-3.83-1.07-3.5-2.62
			c0.4-1.74,1.94-2.4,4.6-2.71l3.87-0.44c1.9-0.22,2.87-0.44,3.47-0.98L90.86,24.99z M117.87,15h-5.07l-10.44,7.06l2.97-13.24H102
			l-5.1,22.7h3.34l1.33-5.96l3.6-2.3l5.1,8.26h4.53l-6.5-10.31L117.87,15z M127.11,14.44c-6.8,0-11.04,4.06-12.1,8.83
			c-1.07,4.76,1.33,8.83,8.14,8.83c3.43,0,7.71-1.61,10.27-5.58h-3.53c-1.67,2.33-4.4,2.93-6.3,2.93c-2.97,0-5.77-1.83-5.27-5.23
			h16.08l0.1-0.41C136.01,16.96,131.71,14.44,127.11,14.44z M118.97,21.75c1.17-2.96,4.3-4.67,7.37-4.67c3.14,0,5.24,1.67,5.07,4.67
			H118.97z M155.42,18.94L149.79,18c-2.83-0.47-3.54-1.57-3.24-2.96c0.6-2.65,3.77-3.69,6.37-3.69c5.7,0,6.24,2.4,6.14,4.16h3.54
			c0.9-5.42-3.77-7.06-8.54-7.06c-6.1,0-10.17,2.74-11.11,6.84c-0.97,4.38,3.04,5.45,5.77,5.89l5.21,0.85
			c2.63,0.44,4.13,1.29,3.67,3.34c-0.53,2.46-3.5,3.81-7.27,3.81c-3.6,0-7.37-1.04-6.54-5.07h-3.54c-1.4,6.21,3.77,7.98,9.14,7.98
			c4.8,0,10.6-1.64,11.9-7.38C162.32,20.11,157.22,19.26,155.42,18.94z M175.56,14.44c-2.5,0-5.44,0.76-7.5,3.06h-0.07l1.94-8.67
			h-3.33l-5.1,22.7h3.33l2.14-9.52c0.73-3.25,3.8-4.92,6.83-4.92c3.57,0,4.87,1.39,4.34,3.82l-2.4,10.62h3.33l2.53-11.25
			C182.53,16.14,179.76,14.44,175.56,14.44z M194.67,14.44c-6.8,0-11.04,4.06-12.1,8.83c-1.07,4.76,1.33,8.83,8.14,8.83
			c6.8,0,11.07-4.07,12.14-8.83C203.91,18.5,201.47,14.44,194.67,14.44z M199.31,23.26c-0.7,2.99-3.17,6.18-8,6.18
			c-4.84,0-5.9-3.19-5.2-6.18c0.67-2.99,3.13-6.18,7.97-6.18C198.91,17.08,199.97,20.27,199.31,23.26z M217.72,14.63
			c-0.6-0.16-1.03-0.19-1.87-0.19c-2.2,0-4.64,0.98-6.81,3.6h-0.06l0.66-3.03h-3.33l-3.7,16.52h3.34l1.9-8.39
			c0.8-3.6,3.5-5.42,6.8-5.42c0.9,0,1.5,0.13,2.3,0.32L217.72,14.63z M227.67,14.44c-6.8,0-11.04,4.06-12.11,8.83
			c-1.06,4.76,1.34,8.83,8.14,8.83c3.44,0,7.7-1.61,10.27-5.58h-3.53c-1.67,2.33-4.4,2.93-6.3,2.93c-2.97,0-5.77-1.83-5.27-5.23
			h16.08l0.1-0.41C236.58,16.96,232.28,14.44,227.67,14.44z M219.54,21.75c1.17-2.96,4.3-4.67,7.37-4.67c3.13,0,5.24,1.67,5.07,4.67
			H219.54z" />
    </g>
    <g>
      <path fill="#7BADD3" d="M64.89,38.29c2.86,0,4.88,0.45,6.05,0.97v2.38c-1.39-0.68-3.58-1.22-6.08-1.22
			c-2.08,0-3.33,0.43-3.89,0.99c-0.46,0.46-0.73,1.02-0.73,2c0,0.99,0.29,1.55,0.73,2c0.56,0.56,1.81,0.99,3.89,0.99
			c2.5,0,4.69-0.49,6.08-1.13v2.29c-1.17,0.53-3.19,0.97-6.05,0.97c-3.4,0-5.25-0.79-6.16-1.69c-0.83-0.83-1.25-1.99-1.25-3.43
			c0-1.44,0.42-2.6,1.25-3.43C59.64,39.08,61.49,38.29,64.89,38.29z" />
      <path fill="#7BADD3" d="M87.56,44.04c-0.54,0.54-1.31,0.9-2.94,1.02l4.8,3.06v0.04h-3.96l-4.58-3.06h-3.4v3.06h-2.71v-9.52h8.29
			c2.87,0,3.83,0.34,4.53,1.03c0.6,0.6,0.76,1.43,0.76,2.18C88.36,42.58,88.22,43.39,87.56,44.04z M83.03,40.83h-5.55v2.27h5.55
			c1.25,0,1.99-0.1,2.34-0.45c0.18-0.18,0.27-0.45,0.27-0.72c0-0.31-0.08-0.55-0.29-0.75C85.06,40.89,84.42,40.83,83.03,40.83z" />
      <path fill="#7BADD3" d="M102.59,38.64h3.43v0.04l-6.5,5.71v3.77h-2.71v-3.74l-6.49-5.74v-0.04h3.62l4.32,3.88L102.59,38.64z" />
      <path fill="#7BADD3" d="M108.5,40c0.92-0.92,2.62-1.71,6.65-1.71c4.02,0,5.72,0.79,6.65,1.71c0.9,0.9,1.28,2.04,1.28,3.4
			c0,1.36-0.38,2.5-1.28,3.4c-0.93,0.92-2.63,1.71-6.65,1.71c-4.03,0-5.73-0.79-6.65-1.71c-0.9-0.9-1.28-2.04-1.28-3.4
			C107.22,42.04,107.6,40.9,108.5,40z M119.6,41.38c-0.56-0.56-1.73-1.03-4.45-1.03c-2.72,0-3.89,0.48-4.45,1.03
			c-0.41,0.41-0.72,1.01-0.72,2.03c0,1.02,0.31,1.62,0.72,2.03c0.56,0.56,1.73,1.03,4.45,1.03c2.72,0,3.89-0.48,4.45-1.03
			c0.41-0.41,0.72-1.01,0.72-2.03C120.32,42.39,120,41.79,119.6,41.38z" />
      <path fill="#7BADD3" d="M140.07,40.79h-6.02v7.37h-2.71v-7.37h-6.05v-2.15h14.78V40.79z" />
      <path fill="#7BADD3" d="M156.22,44.04c-0.55,0.54-1.31,0.9-2.94,1.02l4.8,3.06v0.04h-3.96l-4.58-3.06h-3.4v3.06h-2.71v-9.52h8.3
			c2.87,0,3.84,0.34,4.53,1.03c0.6,0.6,0.76,1.43,0.76,2.18C157.02,42.58,156.87,43.39,156.22,44.04z M151.69,40.83h-5.55v2.27h5.55
			c1.25,0,1.98-0.1,2.34-0.45c0.18-0.18,0.27-0.45,0.27-0.72c0-0.31-0.08-0.55-0.29-0.75C153.71,40.89,153.07,40.83,151.69,40.83z" />
      <path fill="#7BADD3" d="M161.4,40c0.92-0.92,2.63-1.71,6.65-1.71c4.03,0,5.73,0.79,6.65,1.71c0.9,0.9,1.28,2.04,1.28,3.4
			c0,1.36-0.38,2.5-1.28,3.4c-0.92,0.92-2.62,1.71-6.65,1.71c-4.02,0-5.73-0.79-6.65-1.71c-0.9-0.9-1.28-2.04-1.28-3.4
			C160.12,42.04,160.5,40.9,161.4,40z M172.5,41.38c-0.56-0.56-1.73-1.03-4.45-1.03c-2.72,0-3.89,0.48-4.45,1.03
			c-0.41,0.41-0.72,1.01-0.72,2.03c0,1.02,0.31,1.62,0.72,2.03c0.56,0.56,1.73,1.03,4.45,1.03c2.72,0,3.89-0.48,4.45-1.03
			c0.41-0.41,0.72-1.01,0.72-2.03C173.22,42.39,172.91,41.79,172.5,41.38z" />
      <path fill="#7BADD3" d="M191.61,46v-7.36h2.63v9.52h-3.97l-8.02-7.49v7.49h-2.62v-9.52h4.11L191.61,46z" />
      <path fill="#7BADD3" d="M198.48,48.16v-9.52h2.71v9.52H198.48z" />
      <path fill="#7BADD3" d="M212.3,38.29c2.86,0,4.88,0.45,6.05,0.97v2.38c-1.39-0.68-3.58-1.22-6.08-1.22
			c-2.08,0-3.33,0.43-3.89,0.99c-0.46,0.46-0.73,1.02-0.73,2c0,0.99,0.29,1.55,0.73,2c0.56,0.56,1.81,0.99,3.89,0.99
			c2.5,0,4.69-0.49,6.08-1.13v2.29c-1.17,0.53-3.19,0.97-6.05,0.97c-3.4,0-5.25-0.79-6.16-1.69c-0.83-0.83-1.25-1.99-1.25-3.43
			c0-1.44,0.42-2.6,1.25-3.43C207.05,39.08,208.9,38.29,212.3,38.29z" />
      <path fill="#7BADD3" d="M222.76,39.65c0.79-0.79,2.37-1.18,5.57-1.18c2.39,0,4.8,0.38,6.07,0.88v2.23
			c-1.44-0.61-3.96-1.06-6.04-1.06c-2.3,0-3.29,0.14-3.59,0.44c-0.11,0.11-0.18,0.24-0.18,0.42c0,0.19,0.05,0.33,0.16,0.43
			c0.29,0.28,1.36,0.37,3.83,0.42c3.64,0.08,5.22,0.4,5.98,1.16c0.39,0.4,0.61,1.03,0.61,1.72c0,0.73-0.15,1.44-0.68,1.97
			c-0.71,0.71-2.26,1.26-5.94,1.26c-2.72,0-5.34-0.42-6.8-1.03v-2.23c1.4,0.63,4.45,1.21,6.8,1.21c2.06,0,3.49-0.07,3.89-0.46
			c0.14-0.14,0.16-0.28,0.16-0.43c0-0.18-0.04-0.3-0.15-0.41c-0.22-0.22-0.59-0.37-3.86-0.46c-3.48-0.1-5.19-0.43-6-1.24
			c-0.37-0.37-0.58-0.96-0.58-1.66C222.03,40.9,222.16,40.25,222.76,39.65z" />
    </g>
    <g>
      <path fill="#D77900" d="M7.92,64.66l4.99,7.22h-1.82l-1.15-1.69H3.67l-1.15,1.69H0.77l4.99-7.22H7.92z M4.53,68.92h4.54L6.8,65.56
			L4.53,68.92z" />
      <path fill="#D77900" d="M27.72,70.74c-0.56,0.56-1.7,1.14-4.15,1.14h-5.25V64.7h5.25c2.45,0,3.59,0.57,4.15,1.14
			c0.65,0.65,0.92,1.47,0.92,2.45C28.64,69.27,28.36,70.09,27.72,70.74z M23.53,70.59c1.68,0,2.55-0.31,2.95-0.71
			c0.37-0.37,0.55-0.87,0.55-1.59c0-0.72-0.18-1.22-0.55-1.59c-0.4-0.4-1.27-0.71-2.95-0.71h-3.63v4.59H23.53z" />
      <path fill="#D77900" d="M40.15,71.92H38.1l-4.89-7.22h1.85l4.1,6.19l4.11-6.19h1.77L40.15,71.92z" />
      <path fill="#D77900" d="M55.16,64.66l4.99,7.22h-1.82l-1.15-1.69h-6.26l-1.15,1.69h-1.75l4.99-7.22H55.16z M51.78,68.92h4.54
			l-2.28-3.35L51.78,68.92z" />
      <path fill="#D77900" d="M74.35,70.5V64.7h1.58v7.18H73.7l-6.56-5.9v5.9h-1.58V64.7h2.34L74.35,70.5z" />
      <path fill="#D77900" d="M82.93,70.77c-0.62-0.62-0.93-1.5-0.93-2.48c0-0.98,0.31-1.86,0.93-2.48c0.68-0.68,2.05-1.27,4.57-1.27
			c2.02,0,3.53,0.42,4.4,0.9v1.48c-1.02-0.61-2.63-1.1-4.39-1.1c-1.76,0-2.87,0.36-3.34,0.83c-0.38,0.38-0.57,0.9-0.57,1.64
			c0,0.74,0.2,1.24,0.58,1.62c0.47,0.47,1.56,0.85,3.32,0.85c1.75,0,3.37-0.45,4.4-1.03v1.41c-0.87,0.48-2.38,0.9-4.4,0.9
			C84.98,72.04,83.61,71.45,82.93,70.77z" />
      <path fill="#D77900" d="M98.24,71.88V64.7h1.59v7.18H98.24z" />
      <path fill="#D77900" d="M115.23,70.5V64.7h1.58v7.18h-2.22l-6.56-5.9v5.9h-1.58V64.7h2.34L115.23,70.5z" />
      <path fill="#D77900" d="M133.8,67.9v0.82c0,1-0.25,1.65-0.77,2.17c-0.65,0.65-1.91,1.15-4.46,1.15c-2.91,0-4.08-0.61-4.76-1.28
			c-0.58-0.58-0.93-1.42-0.93-2.47c0-0.98,0.31-1.86,0.93-2.48c0.68-0.68,2.03-1.27,4.76-1.27c2.17,0,3.85,0.38,4.73,0.82v1.45
			c-1.04-0.56-2.75-0.99-4.73-0.99c-1.99,0-3.05,0.36-3.52,0.83c-0.38,0.38-0.57,0.9-0.57,1.64c0,0.78,0.21,1.29,0.57,1.65
			c0.47,0.47,1.35,0.86,3.52,0.86c1.72,0,2.81-0.31,3.22-0.72c0.28-0.28,0.38-0.55,0.38-0.91h-4.41V67.9H133.8z" />
      <path fill="#D77900" d="M155.96,70.35c0.14-0.14,0.19-0.32,0.19-0.5c0-0.22-0.05-0.38-0.17-0.5c-0.23-0.23-0.65-0.32-3.18-0.45
			c-2.86-0.14-3.73-0.38-4.23-0.87c-0.29-0.29-0.41-0.69-0.41-1.2c0-0.52,0.11-1.02,0.5-1.41c0.5-0.5,1.49-0.85,4.01-0.85
			c2,0,3.51,0.29,4.46,0.67v1.34c-1.09-0.46-2.89-0.8-4.46-0.8c-1.96,0-2.52,0.18-2.76,0.42c-0.12,0.12-0.18,0.29-0.18,0.48
			c0,0.18,0.05,0.34,0.15,0.44c0.22,0.22,0.7,0.34,3.04,0.45c3.02,0.15,3.86,0.38,4.36,0.87c0.29,0.29,0.44,0.73,0.44,1.24
			c0,0.53-0.11,1.03-0.5,1.41c-0.51,0.51-1.53,0.91-4.21,0.91c-1.99,0-3.94-0.32-5.04-0.8v-1.34c1.07,0.51,3.33,0.93,5.04,0.93
			C155.02,70.8,155.67,70.64,155.96,70.35z" />
      <path fill="#D77900" d="M164.16,70.77c-0.62-0.62-0.93-1.5-0.93-2.48c0-0.98,0.31-1.86,0.93-2.48c0.68-0.68,2.05-1.27,4.57-1.27
			c2.02,0,3.53,0.42,4.4,0.9v1.48c-1.03-0.61-2.64-1.1-4.39-1.1c-1.76,0-2.87,0.36-3.34,0.83c-0.38,0.38-0.58,0.9-0.58,1.64
			c0,0.74,0.2,1.24,0.58,1.62c0.47,0.47,1.56,0.85,3.32,0.85c1.75,0,3.37-0.45,4.4-1.03v1.41c-0.87,0.48-2.38,0.9-4.4,0.9
			C166.21,72.04,164.84,71.45,164.16,70.77z" />
      <path fill="#D77900" d="M179.47,71.88V64.7h1.59v7.18H179.47z" />
      <path fill="#D77900" d="M196.85,67.61v1.27h-7.6v1.7h7.74v1.29h-9.32V64.7h9.32v1.29h-7.74v1.62H196.85z" />
      <path fill="#D77900" d="M212.02,70.5V64.7h1.58v7.18h-2.22l-6.56-5.9v5.9h-1.58V64.7h2.34L212.02,70.5z" />
      <path fill="#D77900" d="M220.6,70.77c-0.62-0.62-0.93-1.5-0.93-2.48c0-0.98,0.31-1.86,0.93-2.48c0.68-0.68,2.05-1.27,4.57-1.27
			c2.02,0,3.53,0.42,4.4,0.9v1.48c-1.02-0.61-2.64-1.1-4.39-1.1c-1.76,0-2.87,0.36-3.34,0.83c-0.38,0.38-0.57,0.9-0.57,1.64
			c0,0.74,0.2,1.24,0.58,1.62c0.47,0.47,1.56,0.85,3.32,0.85c1.75,0,3.37-0.45,4.4-1.03v1.41c-0.87,0.48-2.38,0.9-4.4,0.9
			C222.65,72.04,221.28,71.45,220.6,70.77z" />
      <path fill="#D77900" d="M245.01,67.61v1.27h-7.6v1.7h7.74v1.29h-9.32V64.7h9.32v1.29h-7.74v1.62H245.01z" />
    </g>
  </g>
  <g>
    <path fill="#003057" d="M256.08,4.35c0,2.14-1.68,3.82-3.86,3.82c-2.16,0-3.89-1.68-3.89-3.82c0-2.09,1.72-3.77,3.89-3.77
		C254.4,0.58,256.08,2.26,256.08,4.35z M249.3,4.35c0,1.68,1.24,3.01,2.94,3.01c1.66,0,2.88-1.33,2.88-2.99
		c0-1.68-1.22-3.04-2.9-3.04S249.3,2.69,249.3,4.35z M251.62,6.33h-0.87V2.56c0.34-0.07,0.83-0.12,1.45-0.12
		c0.71,0,1.04,0.12,1.31,0.28c0.21,0.16,0.37,0.46,0.37,0.83c0,0.41-0.32,0.74-0.78,0.87v0.05c0.37,0.14,0.57,0.41,0.69,0.92
		c0.12,0.58,0.18,0.81,0.28,0.94h-0.94c-0.12-0.14-0.18-0.48-0.3-0.92c-0.07-0.41-0.3-0.6-0.78-0.6h-0.41V6.33z M251.64,4.19h0.41
		c0.48,0,0.87-0.16,0.87-0.55c0-0.34-0.25-0.57-0.8-0.57c-0.23,0-0.39,0.02-0.48,0.05V4.19z" />
  </g>
</svg>